<svg width="127" height="19" viewBox="0 0 127 19" fill="none" xmlns="http://www.w3.org/2000/svg">
<path d="M9.16666 5.8318C9.16666 7.73834 8.80555 9.14021 8.08333 10.0094C7.36111 10.9066 6.16667 11.3271 4.52778 11.3271H2.83333V18.4486H0V0.280396H4.52778C6.16667 0.280396 7.33333 0.728993 8.08333 1.62619C8.80555 2.52339 9.16666 3.92525 9.16666 5.8318ZM6.33333 5.8318C6.33333 4.90656 6.19445 4.17759 5.94445 3.67292C5.69445 3.14021 5.19445 2.88787 4.41667 2.88787H2.83333V8.74768H4.41667C5.16667 8.74768 5.69445 8.49535 5.94445 7.96264C6.19445 7.45796 6.33333 6.72899 6.33333 5.8318Z" fill="#191B2B"/>
<path d="M20.5556 13.6262C20.5279 14.4393 20.389 15.1963 20.139 15.8692C19.889 16.5421 19.5279 17.1028 19.0834 17.5234C18.6668 17.9159 18.2223 18.1963 17.7501 18.3925C17.2501 18.5888 16.6668 18.6729 15.9723 18.6729C15.139 18.6729 14.4168 18.5327 13.8612 18.2243C13.3056 17.9159 12.8334 17.5514 12.4723 17.1028C12.1668 16.7383 11.9445 16.3458 11.7501 15.8972C11.5834 15.4486 11.4445 14.9159 11.3612 14.2991C11.2779 13.6822 11.2223 12.9813 11.1945 12.1682C11.1667 11.3551 11.1667 10.4299 11.1667 9.33645C11.1667 8.24299 11.1667 7.31776 11.1945 6.50467C11.2223 5.69159 11.2779 4.99066 11.3612 4.37383C11.4445 3.75701 11.5834 3.2243 11.7501 2.7757C11.9168 2.3271 12.1668 1.93458 12.4723 1.57009C12.8334 1.1215 13.3056 0.75701 13.8612 0.448599C14.4168 0.140188 15.1112 0 15.9723 0C16.6668 0 17.2501 0.11215 17.7779 0.280374C18.2779 0.476636 18.7501 0.75701 19.139 1.14953C19.5834 1.57009 19.9445 2.1028 20.1668 2.7757C20.389 3.42056 20.5279 4.17757 20.5834 4.99065H17.7223C17.6945 4.65421 17.6668 4.31776 17.6112 4.00935C17.5556 3.70093 17.4445 3.4486 17.3056 3.2243C17.1668 3.02804 17.0001 2.85981 16.7779 2.74766C16.5556 2.63551 16.3056 2.57944 15.9445 2.57944C15.6112 2.57944 15.3334 2.63551 15.1112 2.7757C14.889 2.91589 14.7223 3.05608 14.5834 3.28037C14.3056 3.72897 14.1112 4.42991 14.0556 5.38318C14.0001 6.33645 13.9445 7.65421 13.9445 9.30841C13.9445 10.9907 13.9723 12.2804 14.0556 13.2336C14.1112 14.1869 14.3056 14.8879 14.5834 15.3365C14.7223 15.5327 14.889 15.7009 15.1112 15.8411C15.3334 15.9813 15.5834 16.0374 15.9445 16.0374C16.2779 16.0374 16.5556 15.9813 16.7779 15.8692C17.0001 15.757 17.1668 15.5888 17.3056 15.3925C17.4445 15.1402 17.5556 14.8879 17.6112 14.5794C17.6668 14.271 17.6945 13.9626 17.7223 13.5981H20.5556V13.6262Z" fill="#191B2B"/>
<path d="M32.1111 5.8318C32.1111 7.73834 31.75 9.14021 31.0278 10.0094C30.3056 10.9066 29.1111 11.3271 27.4722 11.3271H25.7778V18.4486H22.9445V0.280396H27.4722C29.1111 0.280396 30.2778 0.728993 31.0278 1.62619C31.75 2.52339 32.1111 3.92525 32.1111 5.8318ZM29.2778 5.8318C29.2778 4.90656 29.1389 4.17759 28.8889 3.67292C28.6389 3.14021 28.1389 2.88787 27.3611 2.88787H25.7778V8.74768H27.3611C28.1111 8.74768 28.6389 8.49535 28.8889 7.96264C29.1389 7.45796 29.2778 6.72899 29.2778 5.8318Z" fill="#EDA920"/>
<path d="M40.5 18.4767L39.7778 14.8598H35.6111L34.8889 18.4767H31.8889L36.3334 0.280396H39.0834L43.4723 18.4767H40.5ZM37.6945 4.68226L36.1389 12.3084H39.2223L37.6945 4.68226Z" fill="#EDA920"/>
<path d="M51.9167 18.4767L49.5556 11.0187H47.9722V18.4767H45.1389V0.280396H49.6945C51.3611 0.280396 52.5278 0.700956 53.25 1.54208C53.9722 2.3832 54.3056 3.75703 54.3056 5.63554C54.3056 6.75703 54.1667 7.7103 53.8889 8.52338C53.6111 9.33647 53.0556 9.95329 52.2223 10.4019L54.9167 18.4767H51.9167V18.4767ZM51.4722 5.63554C51.4722 5.27105 51.4445 4.90656 51.4167 4.57011C51.3611 4.23367 51.3056 3.92526 51.1667 3.67292C51.0556 3.42058 50.8611 3.22432 50.6389 3.08413C50.3889 2.94395 50.1111 2.85983 49.7223 2.85983H47.9722V8.43927H49.7223C50.0834 8.43927 50.3889 8.35516 50.6389 8.21497C50.8611 8.07479 51.0556 7.87853 51.1667 7.62619C51.2778 7.37385 51.3611 7.06544 51.4167 6.72899C51.4445 6.36451 51.4722 6.02806 51.4722 5.63554Z" fill="#EDA920"/>
<path d="M61.3333 2.85983V18.4767H58.5V2.85983H55.5V0.280396H64.3889V2.85983H61.3333Z" fill="#EDA920"/>
<path d="M75.6112 5.8318C75.6112 7.73834 75.25 9.14021 74.5278 10.0094C73.8056 10.9066 72.6111 11.3271 70.9723 11.3271H69.2778V18.4486H66.4445V0.280396H70.9723C72.6111 0.280396 73.7778 0.728993 74.5278 1.62619C75.2223 2.52339 75.6112 3.92525 75.6112 5.8318ZM72.75 5.8318C72.75 4.90656 72.6111 4.17759 72.3611 3.67292C72.1111 3.14021 71.6111 2.88787 70.8334 2.88787H69.25V8.74768H70.8334C71.5834 8.74768 72.1111 8.49535 72.3611 7.96264C72.6389 7.45796 72.75 6.72899 72.75 5.8318Z" fill="#191B2B"/>
<path d="M78.0557 18.4767V0.280396H80.889V18.4767H78.0557Z" fill="#191B2B"/>
<path d="M92.8611 13.6262C92.8333 14.4393 92.6944 15.1963 92.4444 15.8692C92.1944 16.5421 91.8333 17.1028 91.3888 17.5234C90.9722 17.9159 90.5277 18.1963 90.0555 18.3925C89.5555 18.5888 88.9722 18.6729 88.2777 18.6729C87.4444 18.6729 86.7222 18.5327 86.1666 18.2243C85.6111 17.9159 85.1388 17.5514 84.7777 17.1028C84.4722 16.7383 84.2499 16.3458 84.0555 15.8972C83.8888 15.4486 83.7499 14.9159 83.6666 14.2991C83.5833 13.6822 83.5277 12.9813 83.4999 12.1682C83.4722 11.3551 83.4722 10.4299 83.4722 9.33645C83.4722 8.24299 83.4722 7.31776 83.4999 6.50467C83.5277 5.69159 83.5833 4.99066 83.6666 4.37383C83.7499 3.75701 83.8888 3.2243 84.0555 2.7757C84.2222 2.3271 84.4722 1.93458 84.7777 1.57009C85.1388 1.1215 85.6111 0.75701 86.1666 0.448599C86.7222 0.140188 87.4166 0 88.2777 0C88.9722 0 89.5555 0.11215 90.0833 0.280374C90.5833 0.476636 91.0555 0.75701 91.4444 1.14953C91.8888 1.57009 92.25 2.1028 92.4722 2.7757C92.6944 3.42056 92.8333 4.17757 92.8888 4.99065H90.0555C90.0277 4.65421 89.9999 4.31776 89.9444 4.00935C89.8888 3.70093 89.7777 3.4486 89.6388 3.2243C89.4999 3.02804 89.3333 2.85981 89.1111 2.74766C88.8888 2.63551 88.6388 2.57944 88.2777 2.57944C87.9444 2.57944 87.6666 2.63551 87.4444 2.7757C87.2222 2.91589 87.0555 3.05608 86.9166 3.28037C86.6388 3.72897 86.4444 4.42991 86.3888 5.38318C86.3333 6.33645 86.2777 7.65421 86.2777 9.30841C86.2777 10.9907 86.3055 12.2804 86.3888 13.2336C86.4444 14.1869 86.6388 14.8879 86.9166 15.3365C87.0555 15.5327 87.2222 15.7009 87.4444 15.8411C87.6666 15.9813 87.9166 16.0374 88.2777 16.0374C88.6111 16.0374 88.8888 15.9813 89.1111 15.8692C89.3333 15.757 89.4999 15.5888 89.6388 15.3925C89.7777 15.1402 89.8888 14.8879 89.9444 14.5794C89.9999 14.271 90.0277 13.9626 90.0555 13.5981H92.8611V13.6262Z" fill="#191B2B"/>
<path d="M102.361 18.4767L99.4445 10.9907L98.0833 13.7944V18.4767H95.25V0.280396H98.0833V8.8318L102 0.280396H104.861L101.25 7.82245L105.417 18.4767H102.361V18.4767Z" fill="#191B2B"/>
<path d="M107.111 18.4767V0.280396H114.694V2.85983H109.972V8.01871H114.056V10.5982H109.944V15.8972H114.667V18.4767H107.111Z" fill="#191B2B"/>
<path d="M123.917 18.4767L121.556 11.0187H119.972V18.4767H117.139V0.280396H121.694C123.361 0.280396 124.528 0.700956 125.25 1.54208C125.972 2.3832 126.306 3.75703 126.306 5.63554C126.306 6.75703 126.167 7.7103 125.889 8.52338C125.611 9.33647 125.056 9.95329 124.222 10.4019L126.917 18.4767H123.917V18.4767ZM123.472 5.63554C123.472 5.27105 123.444 4.90656 123.417 4.57011C123.361 4.23367 123.306 3.92526 123.167 3.67292C123.056 3.42058 122.861 3.22432 122.639 3.08413C122.389 2.94395 122.111 2.85983 121.722 2.85983H119.972V8.43927H121.722C122.083 8.43927 122.389 8.35516 122.639 8.21497C122.861 8.07479 123.056 7.87853 123.167 7.62619C123.278 7.37385 123.361 7.06544 123.417 6.72899C123.444 6.36451 123.472 6.02806 123.472 5.63554Z" fill="#191B2B"/>
</svg>
